<?xml version="1.0" encoding="utf-8"?>
<!-- Generator: Adobe Illustrator 16.0.0, SVG Export Plug-In . SVG Version: 6.00 Build 0)  -->
<!DOCTYPE svg PUBLIC "-//W3C//DTD SVG 1.1//EN" "http://www.w3.org/Graphics/SVG/1.1/DTD/svg11.dtd">
<svg version="1.1" id="Layer_1" xmlns="http://www.w3.org/2000/svg" xmlns:xlink="http://www.w3.org/1999/xlink" x="0px" y="0px"
	 width="1000.999px" height="346.978px" viewBox="0 0 1000.999 346.978" enable-background="new 0 0 1000.999 346.978"
	 xml:space="preserve">
<g>
	<path d="M225.604,0.011c-40.778,0-73.965,33.168-73.965,73.965c0,40.778,33.187,73.978,73.965,73.978
		c40.788,0,73.956-33.199,73.956-73.978C299.561,33.179,266.393,0.011,225.604,0.011 M225.604,133.385
		c-32.756,0-59.417-26.664-59.417-59.409s26.661-59.398,59.417-59.398c32.763,0,59.417,26.653,59.417,59.398
		S258.367,133.385,225.604,133.385"/>
	<path d="M863.373,74.919c-3.979-2.084-28.106-14.519-31.575-16.321c-12.663-6.456-17.151-12.181-17.151-21.882
		c0-13.454,11.039-22.146,28.19-22.146c10.06,0,19.79,4.42,25.484,7.636c1.049,0.565,2.263,0.878,3.537,0.878
		c4.008,0,7.269-3.254,7.269-7.271c0-2.686-1.453-5.035-3.64-6.299C868.303,5.508,856.047,0,842.837,0
		c-25.174,0-42.757,15.104-42.757,36.716c0,19.411,12.745,28.566,25.237,34.949c3.49,1.774,27.91,14.361,31.578,16.293
		c9.645,5.053,14.963,12.616,14.963,21.338c0,11.68-9.883,24.1-28.209,24.1c-17.801,0-31.652-11.957-35.47-15.625l-1.123-1.083
		l-10.787,9.805l1.272,1.245c4.782,4.762,22.252,20.224,46.107,20.224c26.767,0,42.749-19.666,42.749-38.665
		C886.398,95.105,878.016,82.565,863.373,74.919"/>
	<path d="M73.957,14.577c15.888,0,30.813,6.175,42.023,17.377c2.659,2.659,7.665,2.659,10.277,0
		c1.396-1.358,2.139-3.188,2.139-5.129c0-1.935-0.743-3.781-2.139-5.138l-0.878-0.915C111.529,7.374,93.25,0.011,73.957,0.011
		C33.179,0.011,0,33.179,0,73.976c0,40.778,33.179,73.985,73.957,73.985c21.534,0,40.92-9.239,54.439-23.968l-10.295-10.304
		c-10.879,12.088-26.636,19.706-44.145,19.706c-32.753,0-59.407-26.675-59.407-59.42S41.204,14.577,73.957,14.577"/>
	<path d="M575.372,14.577c15.866,0,30.803,6.175,42.003,17.377c2.67,2.659,7.665,2.659,10.306,0c1.377-1.358,2.14-3.188,2.14-5.129
		c0-1.935-0.763-3.781-2.14-5.138l-0.888-0.915C612.915,7.374,594.662,0.011,575.372,0.011c-40.778,0-73.968,33.168-73.968,73.965
		c0,40.778,33.189,73.985,73.968,73.985c21.517,0,40.909-9.239,54.43-23.968l-10.288-10.304
		c-10.879,12.088-26.643,19.706-44.142,19.706c-32.764,0-59.42-26.675-59.42-59.42S542.608,14.577,575.372,14.577"/>
	<path d="M450.076,0.011c-2.725,0-4.875,1.753-6.063,4.044c-1.198,2.263-43.521,106.976-43.521,106.976S358.158,6.317,356.971,4.055
		c-1.188-2.291-3.327-4.044-6.063-4.044c-3.195,0-5.6,2.328-6.44,5.298c-0.839,2.97-24.728,134.761-24.728,134.761
		c-0.087,0.434-0.124,0.867-0.124,1.319c0,3.632,2.951,6.564,6.572,6.564c3.177,0,5.854-2.273,6.428-5.309l20.687-112.737
		c0,0,39.902,98.595,41.08,100.941c1.169,2.347,3.329,4.149,6.109,4.149c2.772,0,4.951-1.803,6.109-4.149
		c1.17-2.347,41.08-100.941,41.08-100.941l21.496,117.224h13.344c0,0-25.156-138.853-25.994-141.822
		C455.668,2.339,453.264,0.011,450.076,0.011"/>
	<path d="M713.063,0c-2.77,0-4.903,1.811-6.109,4.16c-1.196,2.336-54.787,134.675-54.787,134.675
		c-0.321,0.783-0.499,1.65-0.499,2.564c0,3.629,2.939,6.562,6.562,6.562c2.762,0,5.126-1.727,6.099-4.157l20.799-51.179h55.875
		l22.174,54.517h14.182c0,0-57.023-140.646-58.192-142.981C717.985,1.811,715.836,0,713.063,0 M691.068,78.059l21.995-54.083
		l22.016,54.083H691.068z"/>
	<path d="M1000.999,8.073c0-4.029-3.271-7.279-7.287-7.279h-82.357c-4.019,0-7.271,3.25-7.271,7.279
		c0,4.004,3.253,7.268,7.271,7.268h34.526v131.801h13.323V15.341h34.508C997.728,15.341,1000.999,12.077,1000.999,8.073"/>
	<path fill="#006FBA" d="M437.642,198.979c-7.29,0-11.796,5.138-11.796,11.437v135.673h23.581V210.416
		C449.427,204.117,444.928,198.979,437.642,198.979"/>
	<path fill="#006FBA" d="M170.107,287.965l0.011-77.522c0-6.297-4.619-11.415-11.785-11.415c-7.261,0-11.805,5.118-11.805,11.415
		v76.823c0,32.887,23.164,59.606,60.051,59.606c36.826,0,60.048-26.72,60.048-59.606l0.021-87.484h-23.63v88.184
		c0,19.403-12.897,36.76-36.439,36.76S170.107,307.368,170.107,287.965"/>
	<path fill="#006FBA" d="M741.322,222.843c7.731,0,12.472-4.969,12.472-11.541s-4.722-11.542-12.472-11.542h-72.203
		c-6.723,0-11.447,4.762-11.447,11.418v123.562c0,6.449,4.816,11.36,11.447,11.36h83.902v-22.996h-71.797V280.62h54.148
		c8.209,0,12.737-4.885,12.737-11.494c0-6.627-4.488-11.512-12.737-11.512h-54.148v-34.771H741.322z"/>
	<path fill="#006FBA" d="M95.031,266.882c3.91-2.499,14.764-11.031,14.764-30.002c0-22.438-16.046-37.109-40.637-37.109H18.604
		c-6.827,0-11.399,4.648-11.399,11.399V346.1h64.904c26.307,0,44.483-19.148,44.483-43.646
		C116.593,276.368,99.199,268.806,95.031,266.882 M30.795,222.643h35.376c13.294,0,19.753,7.921,19.753,17.793
		c0,9.778-7.09,17.801-19.753,17.801H30.795V222.643z M67.679,323.519H30.795v-43.747l36.884,0.008
		c16.963,0,25.051,9.844,25.051,21.866C92.729,313.675,84.132,323.519,67.679,323.519"/>
	<path fill="#006FBA" d="M507.799,198.979c-7.138,0-11.739,5.08-11.739,11.313v125.202c0,6.296,5.545,11.359,11.841,11.359
		c6.168,0,11.702-5.063,11.702-11.359v-90.336c0,0,57.391,73.392,72.646,92.784c3.8,4.83,6.488,8.911,13.294,8.911
		c6.845,0,11.428-4.958,11.428-11.37V199.741h-23.534v101.31c0,0-63.989-82.073-72.919-93.444
		C516.451,202.401,513.23,198.979,507.799,198.979"/>
	<path fill="#006FBA" d="M294.074,325.169c3.009,3.902,16.791,21.809,47.237,21.809c29.813,0,50.149-17.181,50.149-41.117
		c0-15.738-6.215-28.428-29.511-39.63c-6.223-3.035-23.769-11.444-23.769-11.444c-9.354-4.518-13.446-9.883-13.446-17.112
		c0-7.704,6.325-15.972,21.724-15.972c8.748,0,15.536,2.817,19.168,4.467c1.781,0.813,5.996,2.831,9.956,2.831
		c5.177,0,10.795-3.68,10.795-11.163c0-6.252-4.488-9.657-8.401-11.505c-6.316-2.979-16.131-7.269-32.61-7.269
		c-26.063,0-45.382,16.508-45.382,39.317c0,20.996,14.051,31.387,31.123,39.58c3.235,1.574,15.804,7.646,19.254,9.315
		c10.729,5.195,16.377,10.153,16.377,19.178c0,9.796-9.079,17.922-22.912,17.922c-19.787,0-30.33-12.981-32.264-15.179
		L294.074,325.169z"/>
	<path fill="#006FBA" d="M777.066,325.169c3.006,3.902,16.875,21.809,47.311,21.809c29.765,0,50.064-17.181,50.064-41.117
		c0-15.738-6.091-28.428-29.51-39.63c-6.196-3.035-23.742-11.444-23.742-11.444c-9.371-4.518-13.463-9.883-13.463-17.112
		c0-7.704,6.326-15.972,21.787-15.972c8.74,0,15.483,2.817,19.142,4.467c1.789,0.813,5.996,2.831,10.004,2.831
		c5.166,0,10.813-3.68,10.813-11.163c0-6.252-4.488-9.657-8.43-11.505c-6.344-2.979-16.206-7.269-32.604-7.269
		c-26.013,0-45.424,16.508-45.424,39.317c0,20.996,14.104,31.387,31.084,39.58c3.271,1.574,15.877,7.646,19.364,9.315
		c10.619,5.195,16.292,10.153,16.292,19.178c0,9.796-9.123,17.922-22.854,17.922c-19.885,0-30.341-12.981-32.264-15.179
		L777.066,325.169z"/>
	<path fill="#006FBA" d="M896.805,325.169c3.019,3.902,16.718,21.809,47.143,21.809c29.785,0,50.235-17.181,50.235-41.117
		c0-15.738-6.241-28.428-29.492-39.63c-6.28-3.035-23.91-11.444-23.91-11.444c-9.213-4.518-13.315-9.883-13.315-17.112
		c0-7.704,6.328-15.972,21.641-15.972c8.795,0,15.633,2.817,19.271,4.467c1.725,0.813,5.855,2.831,9.863,2.831
		c5.166,0,10.823-3.68,10.823-11.163c0-6.252-4.499-9.657-8.438-11.505c-6.347-2.979-16.04-7.269-32.614-7.269
		c-25.994,0-45.266,16.508-45.266,39.317c0,20.996,13.945,31.387,31.094,39.58c3.207,1.574,15.729,7.646,19.215,9.315
		c10.777,5.195,16.397,10.153,16.397,19.178c0,9.796-9.071,17.922-22.959,17.922c-19.731,0-30.349-12.981-32.272-15.179
		L896.805,325.169z"/>
</g>
</svg>
